# xmcd CD database file
#
# Track frame offsets:
#	150
#	18360
#	37961
#	59683
#	74806
#	92766
#	118096
#	133643
#	147765
#	159278
#	171706
#	186802
#	205034
#	222305
#	237645
#
# Disc length: 3549 seconds
#
# Revision: 1
# Processed by: cddbd v1.5.2PL0 Copyright (c) Steve Scherf et al.
# Submitted via: CDex 1.51
#
DISCID=e60ddb0f
DTITLE=Various Artist - STTW-3112-70s
DYEAR=1900
DGENRE=Salsa
TTITLE0=Blondie - One Way Or Another
TTITLE1=Bonnie Tyler - Lost In France
TTITLE2=Kinks The - Lola
TTITLE3=Lynn Anderson - Rose Garden
TTITLE4=Racey - Some Girls
TTITLE5=Rod Stewart - Maggie May
TTITLE6=Sex Pistols - Pretty Vacant
TTITLE7=Siouxsie and The banshees - Hong Kong Gardens
TTITLE8=T Rex - Ride A White Swan
TTITLE9=Mixtures The - The PushBike Song
TTITLE10=Wurzels The - Combine Harvester
TTITLE11=Sham 69 - If The kids Are United
TTITLE12=Carpenters The - Rainy Days And Mondays
TTITLE13=Yvonne Elliman - If I Can't Have You
TTITLE14=Megamix - 70s Megamix
EXTD=
EXTT0=
EXTT1=
EXTT2=
EXTT3=
EXTT4=
EXTT5=
EXTT6=
EXTT7=
EXTT8=
EXTT9=
EXTT10=
EXTT11=
EXTT12=
EXTT13=
EXTT14=
PLAYORDER=
